<?xml version="1.0" encoding="utf-8"?>
<!-- Generator: Adobe Illustrator 19.2.1, SVG Export Plug-In . SVG Version: 6.00 Build 0)  -->
<svg version="1.1" id="Layer_1" xmlns="http://www.w3.org/2000/svg" xmlns:xlink="http://www.w3.org/1999/xlink" x="0px" y="0px"
	 viewBox="0 0 1000 1000" style="enable-background:new 0 0 1000 1000;" xml:space="preserve">
<style type="text/css">
	.st0{fill:#E44F26;}
	.st1{fill:#F1662A;}
	.st2{fill:#EBEBEB;}
	.st3{fill:#FFFFFF;}
</style>
<polygon class="st0" points="179.2,890.6 102.1,25.4 949.7,25.4 872.5,890.5 525.4,986.7 "/>
<polygon class="st1" points="525.9,913.1 806.4,835.4 872.4,96.2 525.9,96.2 "/>
<polygon class="st2" points="525.9,417 385.5,417 375.8,308.4 525.9,308.4 525.9,202.3 525.5,202.3 259.8,202.3 262.4,230.7 
	288.4,523.1 525.9,523.1 "/>
<polygon class="st2" points="525.9,692.6 525.4,692.7 407.3,660.8 399.7,576.2 342.3,576.2 293.2,576.2 308.1,742.8 525.4,803.2 
	525.9,803 "/>
<polygon class="st3" points="525.5,417 525.5,523.1 656.2,523.1 643.9,660.8 525.5,692.7 525.5,803.1 743.1,742.8 744.7,724.9 
	769.6,445.5 772.2,417 743.6,417 "/>
<polygon class="st3" points="525.5,202.3 525.5,268.2 525.5,308.1 525.5,308.4 781.5,308.4 781.5,308.4 781.8,308.4 784,284.5 
	788.8,230.7 791.3,202.3 "/>
</svg>
