<?xml version="1.0" encoding="utf-8"?>
<!-- Generator: Adobe Illustrator 18.1.1, SVG Export Plug-In . SVG Version: 6.00 Build 0)  -->
<svg version="1.1" id="Layer_1" xmlns="http://www.w3.org/2000/svg" xmlns:xlink="http://www.w3.org/1999/xlink" x="0px" y="0px"
	 viewBox="0 0 500 500" enable-background="new 0 0 500 500" xml:space="preserve">
<rect fill="#2479BF" width="500" height="500"/>
<path fill="#FFFFFF" d="M286.9,79h-96v297.3h-39V79H56.1V43.7h230.8V79z"/>
<path fill="#FFFFFF" d="M248.4,437.2v-45.9c4.8,4.6,10.6,8.8,17.3,12.5c6.7,3.7,13.8,6.9,21.2,9.4c7.5,2.5,14.9,4.6,22.4,5.9
	c7.5,1.4,14.4,2.1,20.8,2.1c21.9,0,38.3-4.4,49.1-13.3c10.8-8.9,16.2-21.7,16.2-38.4c0-9-1.8-16.8-5.4-23.4
	c-3.6-6.7-8.6-12.7-15-18.2c-6.4-5.5-13.9-10.8-22.6-15.8c-8.7-5-18.1-10.3-28.1-15.9c-10.6-5.9-20.5-11.8-29.7-17.9
	c-9.2-6-17.2-12.7-23.9-19.9c-6.8-7.3-12.1-15.5-16-24.7c-3.9-9.2-5.8-20-5.8-32.3c0-15.2,3-28.3,9.1-39.5
	c6.1-11.2,14.1-20.4,24-27.7c9.9-7.3,21.2-12.7,33.8-16.2c12.7-3.6,25.6-5.3,38.7-5.3c30,0,51.8,4,65.6,11.8v43.8
	c-17.9-13.6-41-20.4-69.2-20.4c-7.8,0-15.6,0.9-23.4,2.6c-7.8,1.8-14.7,4.7-20.8,8.7c-6.1,4-11,9.2-14.8,15.6
	c-3.8,6.3-5.7,14.1-5.7,23.2c0,8.5,1.5,15.8,4.4,22s7.2,11.8,12.9,17c5.7,5.1,12.5,10,20.7,14.8c8.1,4.8,17.5,10,28.1,15.8
	c10.9,5.9,21.2,12.1,31,18.5c9.8,6.5,18.3,13.7,25.7,21.6s13.2,16.6,17.5,26.2c4.3,9.6,6.5,20.6,6.5,32.9c0,16.4-3,30.3-8.8,41.6
	c-5.9,11.3-13.8,20.6-23.7,27.7c-10,7.1-21.4,12.3-34.5,15.4c-13,3.2-26.7,4.7-41.2,4.7c-4.8,0-10.8-0.4-17.8-1.3
	c-7.1-0.9-14.3-2.1-21.6-3.7c-7.4-1.6-14.3-3.6-20.9-6C257.7,442.8,252.5,440.1,248.4,437.2z"/>
</svg>
