<svg xmlns="http://www.w3.org/2000/svg" viewBox="0 0 106.22 54.76"><defs><style>.a{fill:#3fd06f;}</style></defs><title>tour-arrow</title><path class="a" d="M410.74,260.7c-1.81.74-3,0-4.33-1.31-8.37-7.77-16.36-15.83-21.56-26.2-1.34-2.67-5.59-3.24-5.23-7.17,0.69-4,2.68-5.25,6.22-2.79a4.25,4.25,0,0,0,3.65,1c7.58-1.75,15.41-2.54,22.63-5.73,1.5-.67,3.08-2,4.33,0s0.23,3.92-1.58,5.12c-4.13,2.75-9.15,2.78-13.69,4.29-1,.33-2.35-0.27-3.15,1.32,4.67,2.17,9.7,2.22,14.47,2.25,25.25,0.16,48.84-4.81,67.72-23.33,1.26-1.24,2.81-2.92,4.69-1.25s0.36,3.53-.72,4.82c-7.36,8.73-16.77,14.57-27.43,18.33a117.38,117.38,0,0,1-54.45,6.1,38.7,38.7,0,0,0-4.36,0c4,5.25,8.59,9.68,11.5,15.27C411,254.33,412.76,257.27,410.74,260.7Z" transform="translate(-379.6 -206.22)"/></svg>