<svg xmlns="http://www.w3.org/2000/svg" viewBox="0 0 550 550" id="a11y-icon">
<style type="text/css">path { fill: #fff; }</style>
<rect width="550" height="550" fill="#115BA7" />
<path d="M370.7,40.1c9.6-6.8,22.5-10.6,36.4-8.1 c9.5,1.7,17.1,5.8,23.2,11.5c9.2,8.5,15.2,20.3,15.6,34.7c0.6,28.1-21.5,50.5-51.7,48.6c-14.4-0.9-24.8-7.2-33-17 c-5.6-6.6-9-13.1-10.8-23.7C347,65.7,358.5,48.6,370.7,40.1z" id="head" />
<path d="M128.4,261c18.6-17.6,40.9-31.1,70.1-37.1c2-0.4,4.3-0.2,6-1 c2-0.8,5.2-5.9,6.5-7.2c22.5-24.1,43.3-49.2,65.1-73.7c-13-8.1-26.5-15.6-40-23.2c-15.7,13.1-30.4,27.3-46.2,41.2 c-7.2,6.3-19.3,13.3-32.3,7.9c-10.9-4.5-19.1-15.3-18.2-29.9c0.8-12.2,10.2-18.7,18-25.9c15.9-14.6,32.3-29.5,48.8-43.8 c5.7-4.9,10.9-10.7,19.6-12.7c1-0.2,2.6,0.1,3.4-1.2c0.4,1.2,3.7,0.3,6.2,0.5c7.4,0.6,13.7,5.2,19.6,8.6 c29.7,17,59.8,34.4,89.8,51.5c5.8,3.3,11.8,6.8,17.7,10.5c5.9,3.7,12.7,6.3,18,10.3c10.6,8,15.4,25.8,9.3,39.5 c-3.7,8.5-11.2,15-17.2,22c-13.9,16.2-28.8,32.9-43.1,49.3c29.9-1.2,63.7-3.4,92.6-5.7c4.3,0.6,9.3-0.3,14.6,0.7 c14.2,2.7,24.4,14.9,22.7,32.6c-3.9,42.8-7.1,88.4-10.5,133.6c-1,12.4-1.5,21.4-7.9,28.7c-6.7,7.7-19.9,13.2-32.1,8.1 c-10.1-4.2-18.6-13.4-18.4-27.1c0.1-6.5,1.2-13.8,1.7-20.8c1.9-31.1,5.4-66,7.4-96.2c-11.3,0-25.9,1.6-38.1,1.9 c11.3,23.2,18.4,57.7,12.2,91.7c-5.4,30-19.7,55.3-37.6,73c-12.6-12-24.8-24.5-37.3-36.6c9.6-10.5,18.2-24.7,22-40.7 c3.9-16.3,3.6-33.1-1.2-49.3c-13.3-39.2-43.8-66.6-93.4-67.5c-12-0.2-24.8,3.6-34.5,7.9c-10.2,4.6-18.5,10.1-26.6,16.8 C152.8,285.7,141,273,128.4,261z" id="chair-body" />
<path d="M281.9,445.4c10,8.7,19.3,18.5,28.7,28c3.1,3.1,6.8,5.7,9.1,9.3 c-25.3,19.6-60.2,33.1-102.7,30.4c-15.5-1-29.4-5.2-41.9-9.6c-3.8-1.3-7.5-3.4-11-5c-7.7-3.7-15.3-7.7-21.8-12.4 c-6.6-4.8-12.4-10.5-18.2-16c-21.6-20.6-39.1-54.3-41.7-92.4c-1.2-18.5,1.3-39.7,6.9-56.3c5.7-16.9,13.9-30.6,23.5-43.8 c9.6,8.4,18.5,17.9,27.8,27.1c3.2,3.1,6.6,6.2,9.3,9.6c1.3,1.2-1.1,3.4-1.9,4.8c-7,11.4-12.2,26-13.4,43.1 c-1.4,20,4.2,38.5,12.4,52.2c7.7,12.9,18.5,24.6,32.1,33c13.5,8.4,30.7,14.4,49.6,14.4C250.7,461.6,267.7,454.4,281.9,445.4z" id="rear-wheel" />
</svg>