<?xml version="1.0" standalone="no"?>
<!DOCTYPE svg PUBLIC "-//W3C//DTD SVG 20010904//EN"
 "http://www.w3.org/TR/2001/REC-SVG-20010904/DTD/svg10.dtd">
<svg version="1.0" xmlns="http://www.w3.org/2000/svg"
 width="100.000000pt" height="100.000000pt" viewBox="0 0 100.000000 100.000000"
 preserveAspectRatio="xMidYMid meet">
<metadata>
Created by potrace 1.11, written by Peter Selinger 2001-2013
</metadata>
<g transform="translate(0.000000,100.000000) scale(0.100000,-0.100000)"
fill="#0f00f0" stroke="#f0000f">

<metadata>
head
</metadata>
<path fill="#00ff00" stroke="#000000" d="M470 973 c-8 -3 -27 -14 -42 -24 -22 -16 -46 -19 -170 -19 -109 0
-149 -3 -164 -14 -18 -14 -19 -30 -19 -406 0 -461 -13 -420 132 -420 51 0 93
-2 93 -4 0 -2 -7 -20 -15 -39 -8 -20 -15 -39 -15 -42 0 -3 43 -5 95 -5 l95 0
0 55 0 55 35 0 35 0 0 -55 0 -55 129 0 c127 0 130 0 150 26 11 14 23 34 26 45
4 12 15 19 30 19 53 0 55 12 55 422 0 365 -1 379 -20 398 -18 18 -35 20 -172
22 -84 0 -163 0 -175 -1 -18 -1 -23 3 -23 24 0 20 -5 25 -22 24 -13 0 -30 -3
-38 -6z m90 -363 c0 -15 7 -20 29 -20 21 0 30 -6 34 -21 5 -19 11 -21 41 -15
32 6 36 5 36 -15 0 -17 -3 -19 -14 -10 -16 13 -91 7 -117 -9 -20 -13 -11 -17
64 -24 51 -5 67 -4 67 6 0 7 7 0 15 -16 23 -43 19 -115 -8 -167 -27 -50 -107
-111 -171 -129 -36 -10 -49 -9 -100 11 -118 44 -187 147 -166 247 l11 47 72 3
c39 2 74 6 77 8 18 19 -104 41 -126 23 -17 -14 -18 -8 -2 26 6 14 18 25 26 25
7 0 25 9 39 20 34 26 43 25 43 -4 0 -39 17 -40 77 -2 66 42 73 43 73 16z
m-353 -225 l14 -30 -21 24 c-11 13 -20 33 -19 45 0 14 2 16 6 6 3 -8 12 -28
20 -45z m599 -1 c-10 -14 -20 -23 -23 -21 -2 3 3 17 13 31 9 15 19 24 22 22 2
-3 -3 -17 -12 -32z m-283 -240 c-7 -18 -54 -16 -61 4 -2 8 8 12 32 12 28 0 34
-3 29 -16z"/>
<metadata>
left eye
</metadata>
<path fill="#000000" d="M319 451 c-29 -24 -18 -39 32 -47 30 -5 37 -2 46 18 10 20 12 21 12
4 1 -13 4 -17 11 -10 5 5 7 19 4 32 -5 18 -13 22 -44 22 -22 0 -47 -8 -61 -19z"/>
<metadata>
right eye
</metadata>
<path fill="#000000" d="M587 463 c-4 -3 -7 -18 -7 -32 0 -21 2 -23 10 -11 9 13 12 13 21 -2
13 -22 48 -23 56 -2 4 11 8 12 13 4 4 -7 13 -9 20 -5 22 14 -30 55 -70 55 -20
0 -40 -3 -43 -7z"/>
<metadata>
nose
</metadata>
<path fill="#00ffee" d="M476 387 c-5 -18 -5 -32 2 -39 11 -11 32 -3 32 13 0 6 -4 8 -9 4 -5
-3 -11 7 -13 22 l-4 28 -8 -28z"/>
<metadata>
mouse
</metadata>
<path fill="#ff00ee"  d="M400 287 c0 -36 67 -64 125 -53 36 7 78 42 69 58 -3 4 -48 8 -100 8
-72 0 -94 -3 -94 -13z"/>
</g>
</svg>
